<svg width="64" height="64" viewBox="0 0 64 64" fill="none" xmlns="http://www.w3.org/2000/svg">
<rect x="35.3613" y="29.8213" width="8.76481" height="1.0956" rx="0.5478" fill="white"/>
<path d="M47.2671 16C47.9659 16 48.5327 16.5668 48.5327 17.2656V27.8818C48.5327 28.5806 47.9659 29.1475 47.2671 29.1475H32.2681C31.5693 29.1474 31.0024 28.5806 31.0024 27.8818V17.2656C31.0024 16.5669 31.5693 16.0001 32.2681 16H47.2671ZM45.5786 18.8701C45.3487 18.6737 45.0037 18.7009 44.8071 18.9307L40.9478 23.4453L38.6899 21.5234C38.23 21.1326 37.5404 21.1878 37.1479 21.6465L33.8511 25.5039C33.6545 25.7339 33.6817 26.0798 33.9116 26.2764C34.1415 26.4725 34.4866 26.4454 34.6831 26.2158L37.98 22.3584L40.2378 24.2793C40.6978 24.6707 41.3882 24.6162 41.7808 24.1572L45.6392 19.6416C45.8355 19.4116 45.8085 19.0666 45.5786 18.8701Z" fill="white"/>
<rect x="19.3613" y="47.8213" width="8.76481" height="1.0956" rx="0.5478" fill="white"/>
<path d="M31.2671 34C31.9659 34 32.5327 34.5668 32.5327 35.2656V45.8818C32.5327 46.5806 31.9659 47.1475 31.2671 47.1475H16.2681C15.5693 47.1474 15.0024 46.5806 15.0024 45.8818V35.2656C15.0024 34.5669 15.5693 34.0001 16.2681 34H31.2671ZM29.5786 36.8701C29.3487 36.6737 29.0037 36.7009 28.8071 36.9307L24.9478 41.4453L22.6899 39.5234C22.23 39.1326 21.5404 39.1878 21.1479 39.6465L17.8511 43.5039C17.6545 43.7339 17.6817 44.0798 17.9116 44.2764C18.1415 44.4725 18.4866 44.4454 18.6831 44.2158L21.98 40.3584L24.2378 42.2793C24.6978 42.6707 25.3882 42.6162 25.7808 42.1572L29.6392 37.6416C29.8355 37.4116 29.8085 37.0666 29.5786 36.8701Z" fill="white"/>
</svg>
