<svg width="64" height="64" viewBox="0 0 64 64" fill="none" xmlns="http://www.w3.org/2000/svg">
<rect x="37.5806" y="47.8208" width="8.76481" height="1.0956" rx="0.5478" fill="white"/>
<path d="M49.4873 33.9995C50.1858 33.9997 50.7518 34.5656 50.752 35.2642V45.8813C50.7518 46.5799 50.1858 47.1458 49.4873 47.146H34.4883C33.7896 47.146 33.2228 46.58 33.2227 45.8813V35.2642C33.2228 34.5655 33.7896 33.9995 34.4883 33.9995H49.4873ZM47.7979 36.8696C47.5679 36.6732 47.2229 36.7003 47.0264 36.9302L43.167 41.4448L40.9092 39.5229C40.4491 39.1321 39.7596 39.1871 39.3672 39.646L36.0703 43.5034C35.874 43.7334 35.9011 44.0794 36.1309 44.2759C36.3607 44.472 36.7058 44.4447 36.9023 44.2153L40.1992 40.3579L42.457 42.2788C42.917 42.6702 43.6074 42.6155 44 42.1567L47.8584 37.6411C48.0549 37.4111 48.0278 37.0662 47.7979 36.8696Z" fill="white"/>
<rect x="18.3613" y="47.8213" width="8.76481" height="1.0956" rx="0.5478" fill="white"/>
<path d="M30.2671 34C30.9659 34 31.5327 34.5668 31.5327 35.2656V45.8818C31.5327 46.5806 30.9659 47.1475 30.2671 47.1475H15.2681C14.5693 47.1474 14.0024 46.5806 14.0024 45.8818V35.2656C14.0024 34.5669 14.5693 34.0001 15.2681 34H30.2671ZM28.5786 36.8701C28.3487 36.6737 28.0037 36.7009 27.8071 36.9307L23.9478 41.4453L21.6899 39.5234C21.23 39.1326 20.5404 39.1878 20.1479 39.6465L16.8511 43.5039C16.6545 43.7339 16.6817 44.0798 16.9116 44.2764C17.1415 44.4725 17.4866 44.4454 17.6831 44.2158L20.98 40.3584L23.2378 42.2793C23.6978 42.6707 24.3882 42.6162 24.7808 42.1572L28.6392 37.6416C28.8355 37.4116 28.8085 37.0666 28.5786 36.8701Z" fill="white"/>
<rect x="28.1113" y="29.8213" width="8.76481" height="1.0956" rx="0.5478" fill="white"/>
<path d="M40.0171 16C40.7159 16 41.2827 16.5668 41.2827 17.2656V27.8818C41.2827 28.5806 40.7159 29.1475 40.0171 29.1475H25.0181C24.3193 29.1474 23.7524 28.5806 23.7524 27.8818V17.2656C23.7524 16.5669 24.3193 16.0001 25.0181 16H40.0171ZM38.3286 18.8701C38.0987 18.6737 37.7537 18.7009 37.5571 18.9307L33.6978 23.4453L31.4399 21.5234C30.98 21.1326 30.2904 21.1878 29.8979 21.6465L26.6011 25.5039C26.4045 25.7339 26.4317 26.0798 26.6616 26.2764C26.8915 26.4725 27.2366 26.4454 27.4331 26.2158L30.73 22.3584L32.9878 24.2793C33.4478 24.6707 34.1382 24.6162 34.5308 24.1572L38.3892 19.6416C38.5855 19.4116 38.5585 19.0666 38.3286 18.8701Z" fill="white"/>
</svg>
