<svg width="14" height="14" viewBox="0 0 14 14" fill="none" xmlns="http://www.w3.org/2000/svg">
<g clip-path="url(#clip0_1_5644)">
<path d="M12.3009 0.397461H1.69914C0.762211 0.397461 0 1.1597 0 2.09663V8.152H14V2.09663C14 1.1597 13.2378 0.397461 12.3009 0.397461ZM2.09289 1.58179H3.27895C3.50599 1.58179 3.69005 1.76586 3.69005 1.99289C3.69005 2.21993 3.50599 2.404 3.27895 2.404H2.09289C1.86586 2.404 1.68179 2.21993 1.68179 1.99289C1.68179 1.76586 1.86586 1.58179 2.09289 1.58179ZM2.09289 3.2262H3.27895C3.50599 3.2262 3.69005 3.41026 3.69005 3.6373C3.69005 3.86434 3.50599 4.0484 3.27895 4.0484H2.09289C1.86586 4.0484 1.68179 3.86434 1.68179 3.6373C1.68179 3.41026 1.86586 3.2262 2.09289 3.2262ZM2.09289 4.87061H3.27895C3.50599 4.87061 3.69005 5.05467 3.69005 5.28171C3.69005 5.50875 3.50599 5.69281 3.27895 5.69281H2.09289C1.86586 5.69281 1.68179 5.50875 1.68179 5.28171C1.68179 5.05465 1.86586 4.87061 2.09289 4.87061ZM12.2998 3.31818L11.306 5.68229C11.2419 5.83486 11.0925 5.9341 10.927 5.9341H9.9219L8.84895 7.19281C8.77007 7.28531 8.65529 7.33722 8.5361 7.33725C8.51179 7.33725 8.48731 7.33508 8.46289 7.33067C8.31887 7.30461 8.19954 7.20394 8.14961 7.06633L7.26557 4.62989L6.25933 7.08217C6.20202 7.22184 6.07277 7.31886 5.92267 7.33489C5.77256 7.35092 5.62571 7.28337 5.5402 7.15897L4.9147 6.24881L4.28917 7.15897C4.21248 7.27054 4.08578 7.33722 3.95036 7.33722H2.07914C1.8521 7.33722 1.66803 7.15316 1.66803 6.92612C1.66803 6.69908 1.8521 6.51502 2.07914 6.51502H3.73407L4.5759 5.29015C4.65258 5.17858 4.77928 5.1119 4.9147 5.1119C5.05012 5.1119 5.17682 5.17858 5.2535 5.29015L5.78725 6.06678L6.90882 3.3335C6.97328 3.17635 7.12826 3.07557 7.29761 3.07853C7.46745 3.08204 7.61764 3.18964 7.67558 3.34934L8.68154 6.12176L9.41928 5.2563C9.49739 5.16468 9.61173 5.1119 9.73213 5.1119H10.6539L11.5418 2.99957C11.6298 2.79024 11.8708 2.6919 12.0801 2.77988C12.2894 2.86786 12.3877 3.10887 12.2998 3.31818Z" fill="white"/>
<path d="M11.241 12.78H8.50583V11.9985H5.49393V12.78H2.75876C2.53172 12.78 2.34766 12.964 2.34766 13.1911C2.34766 13.4181 2.53172 13.6022 2.75876 13.6022H11.241C11.468 13.6022 11.6521 13.4181 11.6521 13.1911C11.6521 12.964 11.468 12.78 11.241 12.78Z" fill="white"/>
<path d="M0 8.95264V9.47756C0 10.4145 0.762211 11.1767 1.69914 11.1767H12.3009C13.2378 11.1767 14 10.4145 14 9.47756V8.95264H0Z" fill="white"/>
</g>
<defs>
<clipPath id="clip0_1_5644">
<rect width="14" height="14" fill="white"/>
</clipPath>
</defs>
</svg>
