<svg width="64" height="64" viewBox="0 0 64 64" fill="none" xmlns="http://www.w3.org/2000/svg">
<rect x="37.8306" y="47.8208" width="8.76481" height="1.0956" rx="0.5478" fill="white"/>
<path d="M49.7373 33.9995C50.4358 33.9997 51.0018 34.5656 51.002 35.2642V45.8813C51.0018 46.5799 50.4358 47.1458 49.7373 47.146H34.7383C34.0396 47.146 33.4728 46.58 33.4727 45.8813V35.2642C33.4728 34.5655 34.0396 33.9995 34.7383 33.9995H49.7373ZM48.0479 36.8696C47.8179 36.6732 47.4729 36.7003 47.2764 36.9302L43.417 41.4448L41.1592 39.5229C40.6991 39.1321 40.0096 39.1871 39.6172 39.646L36.3203 43.5034C36.124 43.7334 36.1511 44.0794 36.3809 44.2759C36.6107 44.472 36.9558 44.4447 37.1523 44.2153L40.4492 40.3579L42.707 42.2788C43.167 42.6702 43.8574 42.6155 44.25 42.1567L48.1084 37.6411C48.3049 37.4111 48.2778 37.0662 48.0479 36.8696Z" fill="white"/>
<rect x="18.3618" y="29.8208" width="8.76481" height="1.0956" rx="0.5478" fill="white"/>
<path d="M30.2686 15.9995C30.9671 15.9997 31.5331 16.5656 31.5332 17.2642V27.8813C31.533 28.5799 30.9671 29.1458 30.2686 29.146H15.2695C14.5708 29.146 14.0041 28.58 14.0039 27.8813V17.2642C14.0041 16.5655 14.5708 15.9995 15.2695 15.9995H30.2686ZM28.5791 18.8696C28.3491 18.6732 28.0041 18.7003 27.8076 18.9302L23.9482 23.4448L21.6904 21.5229C21.2304 21.1321 20.5408 21.1871 20.1484 21.646L16.8516 25.5034C16.6553 25.7334 16.6823 26.0794 16.9121 26.2759C17.1419 26.472 17.487 26.4447 17.6836 26.2153L20.9805 22.3579L23.2383 24.2788C23.6982 24.6702 24.3886 24.6155 24.7812 24.1567L28.6396 19.6411C28.8361 19.4111 28.8091 19.0662 28.5791 18.8696Z" fill="white"/>
<rect x="18.6113" y="47.8213" width="8.76481" height="1.0956" rx="0.5478" fill="white"/>
<path d="M30.5171 34C31.2159 34 31.7827 34.5668 31.7827 35.2656V45.8818C31.7827 46.5806 31.2159 47.1475 30.5171 47.1475H15.5181C14.8193 47.1474 14.2524 46.5806 14.2524 45.8818V35.2656C14.2524 34.5669 14.8193 34.0001 15.5181 34H30.5171ZM28.8286 36.8701C28.5987 36.6737 28.2537 36.7009 28.0571 36.9307L24.1978 41.4453L21.9399 39.5234C21.48 39.1326 20.7904 39.1878 20.3979 39.6465L17.1011 43.5039C16.9045 43.7339 16.9317 44.0798 17.1616 44.2764C17.3915 44.4725 17.7366 44.4454 17.9331 44.2158L21.23 40.3584L23.4878 42.2793C23.9478 42.6707 24.6382 42.6162 25.0308 42.1572L28.8892 37.6416C29.0855 37.4116 29.0585 37.0666 28.8286 36.8701Z" fill="white"/>
<rect x="37.3613" y="29.8213" width="8.76481" height="1.0956" rx="0.5478" fill="white"/>
<path d="M49.2671 16C49.9659 16 50.5327 16.5668 50.5327 17.2656V27.8818C50.5327 28.5806 49.9659 29.1475 49.2671 29.1475H34.2681C33.5693 29.1474 33.0024 28.5806 33.0024 27.8818V17.2656C33.0024 16.5669 33.5693 16.0001 34.2681 16H49.2671ZM47.5786 18.8701C47.3487 18.6737 47.0037 18.7009 46.8071 18.9307L42.9478 23.4453L40.6899 21.5234C40.23 21.1326 39.5404 21.1878 39.1479 21.6465L35.8511 25.5039C35.6545 25.7339 35.6817 26.0798 35.9116 26.2764C36.1415 26.4725 36.4866 26.4454 36.6831 26.2158L39.98 22.3584L42.2378 24.2793C42.6978 24.6707 43.3882 24.6162 43.7808 24.1572L47.6392 19.6416C47.8355 19.4116 47.8085 19.0666 47.5786 18.8701Z" fill="white"/>
</svg>
