<svg width="64" height="64" viewBox="0 0 64 64" fill="none" xmlns="http://www.w3.org/2000/svg">
<rect x="46.8306" y="48.8208" width="8.76481" height="1.0956" rx="0.5478" fill="white"/>
<path d="M58.7373 34.9995C59.4358 34.9997 60.0018 35.5656 60.002 36.2642V46.8813C60.0018 47.5799 59.4358 48.1458 58.7373 48.146H43.7383C43.0396 48.146 42.4728 47.58 42.4727 46.8813V36.2642C42.4728 35.5655 43.0396 34.9995 43.7383 34.9995H58.7373ZM57.0479 37.8696C56.8179 37.6732 56.4729 37.7003 56.2764 37.9302L52.417 42.4448L50.1592 40.5229C49.6991 40.1321 49.0096 40.1871 48.6172 40.646L45.3203 44.5034C45.124 44.7334 45.1511 45.0794 45.3809 45.2759C45.6107 45.472 45.9558 45.4447 46.1523 45.2153L49.4492 41.3579L51.707 43.2788C52.167 43.6702 52.8574 43.6155 53.25 43.1567L57.1084 38.6411C57.3049 38.4111 57.2778 38.0662 57.0479 37.8696Z" fill="white"/>
<rect x="27.3618" y="28.8208" width="8.76481" height="1.0956" rx="0.5478" fill="white"/>
<path d="M39.2686 14.9995C39.9671 14.9997 40.5331 15.5656 40.5332 16.2642V26.8813C40.533 27.5799 39.9671 28.1458 39.2686 28.146H24.2695C23.5708 28.146 23.0041 27.58 23.0039 26.8813V16.2642C23.0041 15.5655 23.5708 14.9995 24.2695 14.9995H39.2686ZM37.5791 17.8696C37.3491 17.6732 37.0041 17.7003 36.8076 17.9302L32.9482 22.4448L30.6904 20.5229C30.2304 20.1321 29.5408 20.1871 29.1484 20.646L25.8516 24.5034C25.6553 24.7334 25.6823 25.0794 25.9121 25.2759C26.1419 25.472 26.487 25.4447 26.6836 25.2153L29.9805 21.3579L32.2383 23.2788C32.6982 23.6702 33.3886 23.6155 33.7812 23.1567L37.6396 18.6411C37.8361 18.4111 37.8091 18.0662 37.5791 17.8696Z" fill="white"/>
<rect x="8.36182" y="28.8208" width="8.76481" height="1.0956" rx="0.5478" fill="white"/>
<path d="M20.2686 14.9995C20.9671 14.9997 21.5331 15.5656 21.5332 16.2642V26.8813C21.533 27.5799 20.9671 28.1458 20.2686 28.146H5.26953C4.57082 28.146 4.00406 27.58 4.00391 26.8813V16.2642C4.00406 15.5655 4.57082 14.9995 5.26953 14.9995H20.2686ZM18.5791 17.8696C18.3491 17.6732 18.0041 17.7003 17.8076 17.9302L13.9482 22.4448L11.6904 20.5229C11.2304 20.1321 10.5408 20.1871 10.1484 20.646L6.85156 24.5034C6.65528 24.7334 6.68235 25.0794 6.91211 25.2759C7.14191 25.472 7.48705 25.4447 7.68359 25.2153L10.9805 21.3579L13.2383 23.2788C13.6982 23.6702 14.3886 23.6155 14.7812 23.1567L18.6396 18.6411C18.8361 18.4111 18.8091 18.0662 18.5791 17.8696Z" fill="white"/>
<rect x="27.6113" y="48.8213" width="8.76481" height="1.0956" rx="0.5478" fill="white"/>
<path d="M39.5171 35C40.2159 35 40.7827 35.5668 40.7827 36.2656V46.8818C40.7827 47.5806 40.2159 48.1475 39.5171 48.1475H24.5181C23.8193 48.1474 23.2524 47.5806 23.2524 46.8818V36.2656C23.2524 35.5669 23.8193 35.0001 24.5181 35H39.5171ZM37.8286 37.8701C37.5987 37.6737 37.2537 37.7009 37.0571 37.9307L33.1978 42.4453L30.9399 40.5234C30.48 40.1326 29.7904 40.1878 29.3979 40.6465L26.1011 44.5039C25.9045 44.7339 25.9317 45.0798 26.1616 45.2764C26.3915 45.4725 26.7366 45.4454 26.9331 45.2158L30.23 41.3584L32.4878 43.2793C32.9478 43.6707 33.6382 43.6162 34.0308 43.1572L37.8892 38.6416C38.0855 38.4116 38.0585 38.0666 37.8286 37.8701Z" fill="white"/>
<rect x="46.3613" y="28.8213" width="8.76481" height="1.0956" rx="0.5478" fill="white"/>
<path d="M58.2671 15C58.9659 15 59.5327 15.5668 59.5327 16.2656V26.8818C59.5327 27.5806 58.9659 28.1475 58.2671 28.1475H43.2681C42.5693 28.1474 42.0024 27.5806 42.0024 26.8818V16.2656C42.0024 15.5669 42.5693 15.0001 43.2681 15H58.2671ZM56.5786 17.8701C56.3487 17.6737 56.0037 17.7009 55.8071 17.9307L51.9478 22.4453L49.6899 20.5234C49.23 20.1326 48.5404 20.1878 48.1479 20.6465L44.8511 24.5039C44.6545 24.7339 44.6817 25.0798 44.9116 25.2764C45.1415 25.4725 45.4866 25.4454 45.6831 25.2158L48.98 21.3584L51.2378 23.2793C51.6978 23.6707 52.3882 23.6162 52.7808 23.1572L56.6392 18.6416C56.8355 18.4116 56.8085 18.0666 56.5786 17.8701Z" fill="white"/>
<rect x="8.36133" y="48.8213" width="8.76481" height="1.0956" rx="0.5478" fill="white"/>
<path d="M20.2671 35C20.9659 35 21.5327 35.5668 21.5327 36.2656V46.8818C21.5327 47.5806 20.9659 48.1475 20.2671 48.1475H5.26807C4.56934 48.1474 4.00244 47.5806 4.00244 46.8818V36.2656C4.00244 35.5669 4.56934 35.0001 5.26807 35H20.2671ZM18.5786 37.8701C18.3487 37.6737 18.0037 37.7009 17.8071 37.9307L13.9478 42.4453L11.6899 40.5234C11.2299 40.1326 10.5404 40.1878 10.1479 40.6465L6.85107 44.5039C6.65454 44.7339 6.68174 45.0798 6.91162 45.2764C7.14151 45.4725 7.4866 45.4454 7.68311 45.2158L10.98 41.3584L13.2378 43.2793C13.6978 43.6707 14.3882 43.6162 14.7808 43.1572L18.6392 38.6416C18.8355 38.4116 18.8085 38.0666 18.5786 37.8701Z" fill="white"/>
</svg>
